<mxfile host="Electron" modified="2023-11-30T15:02:11.504Z" agent="Mozilla/5.0 (Windows NT 10.0; Win64; x64) AppleWebKit/537.36 (KHTML, like Gecko) draw.io/22.0.3 Chrome/114.0.5735.289 Electron/25.8.4 Safari/537.36" etag="8RRi8S1PZ8YubDky5j6u" version="22.0.3" type="device">
  <diagram name="Page-1" id="2YBvvXClWsGukQMizWep">
    <mxGraphModel dx="675" dy="390" grid="1" gridSize="10" guides="1" tooltips="1" connect="1" arrows="1" fold="1" page="1" pageScale="1" pageWidth="1100" pageHeight="850" math="0" shadow="0">
      <root>
        <mxCell id="0" />
        <mxCell id="1" parent="0" />
        <mxCell id="aU0HGNAPcclceslYIac4-15" style="edgeStyle=orthogonalEdgeStyle;rounded=0;orthogonalLoop=1;jettySize=auto;html=1;curved=0;exitX=0.5;exitY=0.21;exitDx=0;exitDy=0;exitPerimeter=0;entryX=0;entryY=0.04;entryDx=0;entryDy=0;entryPerimeter=0;" edge="1" parent="1" source="aU0HGNAPcclceslYIac4-13" target="aU0HGNAPcclceslYIac4-17">
          <mxGeometry relative="1" as="geometry">
            <mxPoint x="340" y="140" as="targetPoint" />
          </mxGeometry>
        </mxCell>
        <mxCell id="aU0HGNAPcclceslYIac4-18" value="read measurement" style="edgeLabel;html=1;align=center;verticalAlign=middle;resizable=0;points=[];" vertex="1" connectable="0" parent="aU0HGNAPcclceslYIac4-15">
          <mxGeometry x="-0.2133" y="1" relative="1" as="geometry">
            <mxPoint x="13" as="offset" />
          </mxGeometry>
        </mxCell>
        <mxCell id="aU0HGNAPcclceslYIac4-13" value="" style="shape=umlLifeline;perimeter=lifelinePerimeter;whiteSpace=wrap;html=1;container=1;dropTarget=0;collapsible=0;recursiveResize=0;outlineConnect=0;portConstraint=eastwest;newEdgeStyle={&quot;curved&quot;:0,&quot;rounded&quot;:0};participant=umlActor;size=40;points=[[0.5,0.21,0,0,0],[0.5,0.26,0,0,0],[0.5,0.32,0,0,0],[0.5,0.37,0,0,0],[0.5,0.48,0,0,0],[0.5,0.52,0,0,0],[0.5,0.56,0,0,0],[0.5,0.62,0,0,0],[0.5,0.67,0,0,0],[0.52,0.42,0,0,0]];" vertex="1" parent="1">
          <mxGeometry x="210" y="80" width="20" height="300" as="geometry" />
        </mxCell>
        <mxCell id="aU0HGNAPcclceslYIac4-14" value=":System" style="shape=umlLifeline;perimeter=lifelinePerimeter;whiteSpace=wrap;html=1;container=1;dropTarget=0;collapsible=0;recursiveResize=0;outlineConnect=0;portConstraint=eastwest;newEdgeStyle={&quot;curved&quot;:0,&quot;rounded&quot;:0};points=[[0.5,0.22,0,0,0],[0.5,0.29,0,0,0],[0.5,0.36,0,0,0],[0.5,0.43,0,0,0],[0.5,0.5,0,0,0],[0.5,0.56,0,0,0],[0.5,0.62,0,0,0],[0.5,0.69,0,0,0]];" vertex="1" parent="1">
          <mxGeometry x="320" y="80" width="100" height="300" as="geometry" />
        </mxCell>
        <mxCell id="aU0HGNAPcclceslYIac4-16" value=":System" style="shape=umlLifeline;perimeter=lifelinePerimeter;whiteSpace=wrap;html=1;container=1;dropTarget=0;collapsible=0;recursiveResize=0;outlineConnect=0;portConstraint=eastwest;newEdgeStyle={&quot;curved&quot;:0,&quot;rounded&quot;:0};points=[[0.5,0.2,0,0,0],[0.5,0.29,0,0,0],[0.5,0.36,0,0,0],[0.5,0.43,0,0,0],[0.5,0.5,0,0,0],[0.5,0.56,0,0,0],[0.5,0.62,0,0,0],[0.5,0.69,0,0,0]];" vertex="1" parent="1">
          <mxGeometry x="320" y="80" width="100" height="300" as="geometry" />
        </mxCell>
        <mxCell id="aU0HGNAPcclceslYIac4-17" value="" style="html=1;points=[[0,0,0,0,5],[0,0.01,0,0,0],[0,0.02,0,0,0],[0,0.03,0,0,0],[0,0.04,0,0,0],[0,0.05,0,0,0],[0,0.06,0,0,0],[0,0.07,0,0,0],[0,0.08,0,0,0],[0,0.09,0,0,0],[0,0.1,0,0,0],[0,0.11,0,0,0],[0,0.12,0,0,0],[0,0.13,0,0,0],[0,0.14,0,0,0],[0,0.15,0,0,0],[0,0.16,0,0,0],[0,0.17,0,0,0],[0,0.18,0,0,0],[0,0.19,0,0,0],[0,0.2,0,0,0],[0,0.21,0,0,0],[0,0.22,0,0,0],[0,0.23,0,0,0],[0,0.24,0,0,0],[0,0.25,0,0,0],[0,0.26,0,0,0],[0,0.27,0,0,0],[0,0.28,0,0,0],[0,0.29,0,0,0],[0,0.3,0,0,0],[0,0.31,0,0,0],[0,0.32,0,0,0],[0,0.33,0,0,0],[0,0.34,0,0,0],[0,0.35,0,0,0],[0,0.36,0,0,0],[0,0.37,0,0,0],[0,0.38,0,0,0],[0,0.39,0,0,0],[0,0.4,0,0,0],[0,0.41,0,0,0],[0,0.42,0,0,0],[0,0.43,0,0,0],[0,0.44,0,0,0],[0,0.45,0,0,0],[0,0.46,0,0,0],[0,0.47,0,0,0],[0,0.48,0,0,0],[0,0.49,0,0,0],[0,0.5,0,0,0],[0,0.51,0,0,0],[0,0.52,0,0,0],[0,0.53,0,0,0],[0,0.54,0,0,0],[0,0.55,0,0,0],[0,0.56,0,0,0],[0,0.57,0,0,0],[0,0.58,0,0,0],[0,0.59,0,0,0],[0,0.6,0,0,0],[0,0.61,0,0,0],[0,0.62,0,0,0],[0,0.63,0,0,0],[0,0.64,0,0,0],[0,0.65,0,0,0],[0,0.66,0,0,0],[0,0.67,0,0,0],[0,0.68,0,0,0],[0,0.69,0,0,0],[0,0.7,0,0,0],[0,0.71,0,0,0],[0,0.72,0,0,0],[0,0.73,0,0,0],[0,0.74,0,0,0],[0,0.75,0,0,0],[0,0.76,0,0,0],[0,0.77,0,0,0],[0,0.78,0,0,0],[0,0.79,0,0,0],[0,0.8,0,0,0],[0,0.81,0,0,0],[0,0.82,0,0,0],[0,0.83,0,0,0],[0,0.84,0,0,0],[0,0.85,0,0,0],[0,0.86,0,0,0],[0,0.87,0,0,0],[0,0.88,0,0,0],[0,0.89,0,0,0],[0,0.9,0,0,0],[0,0.91,0,0,0],[0,0.92,0,0,0],[0,0.93,0,0,0],[0,0.94,0,0,0],[0,0.95,0,0,0],[0,0.96,0,0,0],[0,0.97,0,0,0],[0,0.98,0,0,0],[0,0.99,0,0,0],[0,1,0,0,-5],[1,0,0,0,5],[1,0.01,0,0,0],[1,0.02,0,0,0],[1,0.03,0,0,0],[1,0.04,0,0,0],[1,0.05,0,0,0],[1,0.06,0,0,0],[1,0.07,0,0,0],[1,0.08,0,0,0],[1,0.09,0,0,0],[1,0.1,0,0,0],[1,0.11,0,0,0],[1,0.12,0,0,0],[1,0.13,0,0,0],[1,0.14,0,0,0],[1,0.15,0,0,0],[1,0.16,0,0,0],[1,0.17,0,0,0],[1,0.18,0,0,0],[1,0.19,0,0,0],[1,0.2,0,0,0],[1,0.21,0,0,0],[1,0.22,0,0,0],[1,0.23,0,0,0],[1,0.24,0,0,0],[1,0.25,0,0,0],[1,0.26,0,0,0],[1,0.27,0,0,0],[1,0.28,0,0,0],[1,0.29,0,0,0],[1,0.3,0,0,0],[1,0.31,0,0,0],[1,0.32,0,0,0],[1,0.33,0,0,0],[1,0.34,0,0,0],[1,0.35,0,0,0],[1,0.36,0,0,0],[1,0.37,0,0,0],[1,0.38,0,0,0],[1,0.39,0,0,0],[1,0.4,0,0,0],[1,0.41,0,0,0],[1,0.42,0,0,0],[1,0.43,0,0,0],[1,0.44,0,0,0],[1,0.45,0,0,0],[1,0.46,0,0,0],[1,0.47,0,0,0],[1,0.48,0,0,0],[1,0.49,0,0,0],[1,0.5,0,0,0],[1,0.51,0,0,0],[1,0.52,0,0,0],[1,0.53,0,0,0],[1,0.54,0,0,0],[1,0.55,0,0,0],[1,0.56,0,0,0],[1,0.57,0,0,0],[1,0.58,0,0,0],[1,0.59,0,0,0],[1,0.6,0,0,0],[1,0.61,0,0,0],[1,0.62,0,0,0],[1,0.63,0,0,0],[1,0.64,0,0,0],[1,0.65,0,0,0],[1,0.66,0,0,0],[1,0.67,0,0,0],[1,0.68,0,0,0],[1,0.69,0,0,0],[1,0.7,0,0,0],[1,0.71,0,0,0],[1,0.72,0,0,0],[1,0.73,0,0,0],[1,0.74,0,0,0],[1,0.75,0,0,0],[1,0.76,0,0,0],[1,0.77,0,0,0],[1,0.78,0,0,0],[1,0.79,0,0,0],[1,0.8,0,0,0],[1,0.81,0,0,0],[1,0.82,0,0,0],[1,0.83,0,0,0],[1,0.84,0,0,0],[1,0.85,0,0,0],[1,0.86,0,0,0],[1,0.87,0,0,0],[1,0.88,0,0,0],[1,0.89,0,0,0],[1,0.9,0,0,0],[1,0.91,0,0,0],[1,0.92,0,0,0],[1,0.93,0,0,0],[1,0.94,0,0,0],[1,0.95,0,0,0],[1,0.96,0,0,0],[1,0.97,0,0,0],[1,0.98,0,0,0],[1,0.99,0,0,0],[1,1,0,0,-5]];perimeter=orthogonalPerimeter;outlineConnect=0;targetShapes=umlLifeline;portConstraint=eastwest;newEdgeStyle={&quot;curved&quot;:0,&quot;rounded&quot;:0};" vertex="1" parent="aU0HGNAPcclceslYIac4-16">
          <mxGeometry x="45" y="60" width="10" height="80" as="geometry" />
        </mxCell>
        <mxCell id="aU0HGNAPcclceslYIac4-19" style="edgeStyle=orthogonalEdgeStyle;rounded=0;orthogonalLoop=1;jettySize=auto;html=1;curved=0;exitX=1;exitY=0;exitDx=0;exitDy=5;exitPerimeter=0;entryX=1;entryY=0.75;entryDx=0;entryDy=0;entryPerimeter=0;" edge="1" parent="aU0HGNAPcclceslYIac4-16" source="aU0HGNAPcclceslYIac4-17" target="aU0HGNAPcclceslYIac4-17">
          <mxGeometry relative="1" as="geometry" />
        </mxCell>
        <mxCell id="aU0HGNAPcclceslYIac4-20" value="take measurement" style="edgeLabel;html=1;align=center;verticalAlign=middle;resizable=0;points=[];" vertex="1" connectable="0" parent="aU0HGNAPcclceslYIac4-19">
          <mxGeometry x="-0.1" y="-1" relative="1" as="geometry">
            <mxPoint x="36" y="2" as="offset" />
          </mxGeometry>
        </mxCell>
        <mxCell id="aU0HGNAPcclceslYIac4-21" style="edgeStyle=orthogonalEdgeStyle;rounded=0;orthogonalLoop=1;jettySize=auto;html=1;curved=0;exitX=0;exitY=0.83;exitDx=0;exitDy=0;exitPerimeter=0;entryX=0.52;entryY=0.42;entryDx=0;entryDy=0;entryPerimeter=0;endArrow=open;endFill=0;dashed=1;" edge="1" parent="1" source="aU0HGNAPcclceslYIac4-17" target="aU0HGNAPcclceslYIac4-13">
          <mxGeometry relative="1" as="geometry" />
        </mxCell>
        <mxCell id="aU0HGNAPcclceslYIac4-24" value="display measurement" style="edgeLabel;html=1;align=center;verticalAlign=middle;resizable=0;points=[];" vertex="1" connectable="0" parent="aU0HGNAPcclceslYIac4-21">
          <mxGeometry x="-0.216" relative="1" as="geometry">
            <mxPoint x="-19" as="offset" />
          </mxGeometry>
        </mxCell>
      </root>
    </mxGraphModel>
  </diagram>
</mxfile>
